<?xml version="1.0" standalone="no"?>
<!DOCTYPE svg PUBLIC "-//W3C//DTD SVG 20010904//EN"
 "http://www.w3.org/TR/2001/REC-SVG-20010904/DTD/svg10.dtd">
<svg version="1.0" xmlns="http://www.w3.org/2000/svg"
 width="990.000000pt" height="990.000000pt" viewBox="0 0 990.000000 990.000000"
 preserveAspectRatio="xMidYMid meet">
<metadata>
Created by potrace 1.11, written by Peter Selinger 2001-2013
</metadata>
<g transform="translate(0.000000,990.000000) scale(0.100000,-0.100000)"
fill="#000000" stroke="none">
<path d="M4678 9825 c-2 -2 -48 -6 -103 -10 -96 -6 -129 -9 -205 -20 -19 -3
-55 -7 -80 -10 -51 -5 -99 -12 -150 -22 -19 -4 -42 -8 -51 -8 -8 -1 -33 -5
-55 -10 -21 -4 -50 -9 -64 -12 -21 -4 -138 -28 -180 -38 -8 -2 -15 -4 -15 -5
0 -1 -9 -3 -20 -5 -55 -8 -394 -109 -427 -126 -10 -5 -18 -7 -18 -4 0 3 -13
-1 -30 -10 -16 -9 -30 -13 -30 -10 0 3 -10 0 -22 -7 -13 -7 -25 -13 -28 -13
-3 -1 -18 -7 -33 -13 -16 -7 -30 -12 -32 -12 -2 0 -16 -5 -32 -12 -15 -6 -32
-12 -38 -14 -27 -6 -387 -173 -395 -183 -3 -3 -50 -28 -104 -56 -54 -27 -104
-55 -110 -60 -6 -6 -29 -19 -51 -30 -22 -11 -45 -27 -52 -35 -7 -8 -13 -12
-13 -9 0 11 -326 -206 -387 -258 -11 -10 -31 -25 -43 -33 -12 -8 -28 -20 -34
-25 -6 -6 -31 -26 -56 -45 -25 -19 -47 -37 -50 -40 -3 -3 -36 -32 -75 -65
-132 -112 -337 -313 -435 -425 -30 -34 -60 -68 -67 -75 -24 -25 -89 -102 -113
-134 -14 -18 -38 -49 -55 -69 -64 -76 -265 -364 -265 -381 0 -5 -4 -11 -8 -13
-10 -4 -112 -175 -112 -187 0 -5 -4 -11 -9 -13 -11 -4 -137 -247 -196 -379
-26 -57 -56 -123 -66 -146 -10 -23 -19 -45 -19 -48 0 -4 -6 -21 -14 -38 -21
-48 -38 -95 -38 -104 0 -4 -5 -17 -11 -28 -6 -11 -12 -22 -12 -25 0 -3 -20
-64 -43 -137 -24 -72 -45 -140 -47 -150 -2 -10 -13 -48 -24 -85 -11 -38 -17
-68 -14 -68 3 0 0 -6 -6 -13 -6 -8 -8 -17 -5 -20 3 -3 2 -12 -2 -19 -5 -7 -9
-17 -10 -23 -10 -60 -21 -110 -25 -110 -1 0 -3 -11 -4 -25 -1 -14 -5 -38 -8
-55 -12 -55 -16 -80 -21 -115 -3 -19 -8 -45 -10 -57 -3 -12 -7 -48 -11 -80 -3
-32 -8 -71 -10 -88 -22 -155 -29 -308 -29 -580 1 -273 7 -388 29 -560 3 -22 8
-58 11 -80 8 -70 53 -329 63 -362 5 -18 7 -33 4 -33 -3 0 0 -7 7 -15 7 -8 10
-15 7 -15 -3 0 -1 -17 4 -37 5 -21 12 -49 15 -63 7 -33 84 -300 94 -325 4 -11
18 -49 31 -85 105 -305 306 -731 421 -893 11 -15 17 -27 14 -27 -5 0 222 -342
233 -350 4 -3 18 -21 31 -40 27 -39 134 -173 193 -241 129 -150 309 -335 442
-454 43 -38 85 -78 94 -87 8 -10 19 -18 24 -18 4 0 18 -10 30 -23 60 -63 536
-407 563 -407 3 0 20 -11 38 -25 18 -14 36 -25 40 -25 3 0 23 -11 44 -23 86
-55 299 -165 456 -237 99 -46 336 -140 366 -146 13 -3 31 -11 39 -17 8 -7 16
-11 18 -9 1 1 4 2 6 1 1 0 10 -2 20 -4 10 -2 26 -7 35 -11 9 -4 22 -8 27 -10
6 -1 37 -12 70 -24 33 -11 62 -21 65 -21 10 0 55 -11 70 -16 8 -4 20 -7 25 -8
6 0 17 -4 25 -7 14 -6 42 -13 150 -37 25 -5 74 -16 110 -25 36 -8 88 -18 115
-22 28 -3 58 -8 68 -10 9 -2 25 -6 35 -8 20 -4 84 -13 157 -22 28 -3 61 -7 75
-10 14 -2 61 -7 105 -10 44 -3 114 -9 155 -14 80 -8 631 -5 690 3 19 3 69 8
110 11 41 3 84 8 95 10 11 2 47 7 80 10 70 9 122 16 150 21 87 16 135 25 169
30 21 3 42 7 46 10 4 2 22 7 41 9 19 3 49 9 67 15 17 5 32 7 32 4 0 -3 7 0 15
7 8 7 15 10 15 7 0 -3 48 8 108 24 59 16 131 36 160 44 30 9 62 20 73 25 10 6
19 8 19 5 0 -3 13 1 29 9 15 8 39 17 52 20 41 7 270 97 434 171 103 45 306
149 408 208 54 32 102 57 107 57 5 0 13 6 17 13 4 8 15 17 23 20 16 7 31 17
97 60 23 15 46 27 51 27 6 0 12 4 14 8 2 4 48 39 103 77 55 38 102 72 105 75
3 3 45 37 95 75 49 39 97 77 106 85 8 8 40 35 70 60 128 107 350 328 479 475
47 54 90 103 95 109 6 6 26 32 45 56 19 25 38 47 42 48 4 2 8 8 8 13 0 5 8 17
18 27 31 33 52 62 45 62 -3 0 4 8 15 19 12 10 19 21 15 24 -3 4 2 9 11 13 9 3
16 12 16 20 0 8 4 14 8 14 5 0 14 10 19 23 6 12 18 31 27 42 53 65 281 445
268 445 -4 0 -2 4 4 8 15 9 158 306 204 422 8 19 20 46 27 59 6 14 10 28 7 33
-3 4 0 8 6 8 6 0 8 5 5 10 -3 6 1 17 9 26 9 8 17 22 17 30 2 17 4 24 12 44 26
62 131 407 141 462 2 15 7 31 9 36 3 4 8 27 12 52 4 25 8 47 10 51 5 7 22 92
30 149 1 14 4 25 5 25 2 0 6 23 14 72 3 21 8 49 10 63 3 14 7 45 10 70 3 25 8
65 12 90 5 46 8 77 21 230 14 165 7 672 -11 820 -9 72 -16 126 -21 175 -3 28
-8 61 -11 75 -2 14 -7 41 -10 60 -3 19 -7 42 -9 50 -3 8 -7 33 -10 55 -9 57
-14 87 -20 110 -10 44 -36 151 -41 175 -8 38 -54 197 -76 262 -11 32 -20 67
-21 78 -1 11 -6 20 -11 20 -5 0 -6 3 -3 7 4 3 3 11 -2 17 -4 6 -16 36 -26 66
-28 88 -118 307 -165 402 -16 31 -26 59 -22 62 3 3 0 6 -6 6 -7 0 -12 9 -12
19 0 11 -3 21 -7 23 -5 2 -24 35 -43 73 -109 220 -369 623 -502 780 -9 11 -25
30 -35 41 -10 12 -31 39 -48 60 -16 22 -45 55 -64 74 -18 19 -47 52 -65 73
-69 84 -341 351 -441 432 -27 22 -54 45 -60 51 -6 7 -67 55 -136 107 -68 53
-131 102 -139 109 -9 7 -28 19 -43 27 -15 8 -35 22 -44 31 -10 9 -70 49 -133
89 -105 68 -131 83 -201 123 -13 7 -26 15 -29 18 -3 3 -21 13 -40 22 -19 10
-77 40 -127 67 -51 28 -93 47 -93 43 0 -4 -4 -2 -8 3 -6 9 -56 36 -72 40 -3 0
-36 16 -75 34 -81 39 -203 90 -225 96 -8 2 -36 12 -63 24 -26 11 -48 20 -50
20 -1 0 -15 5 -32 11 -16 7 -37 13 -45 15 -8 2 -42 13 -75 25 -82 29 -280 84
-411 115 -60 14 -120 28 -134 32 -14 3 -36 7 -50 8 -14 2 -34 5 -45 8 -11 2
-54 10 -95 16 -41 7 -82 15 -90 17 -8 3 -46 8 -84 10 -37 2 -71 6 -75 9 -4 2
-46 7 -92 11 -46 3 -100 8 -119 11 -39 5 -637 13 -642 8z m246 -450 c3 -8 1
-17 -4 -20 -6 -4 -7 -13 -1 -23 4 -9 9 -42 10 -72 1 -30 4 -68 7 -85 18 -123
22 -210 9 -210 -5 -1 -26 -4 -45 -8 -19 -4 -46 -9 -60 -12 -77 -16 -188 -44
-259 -65 -34 -11 -73 -22 -85 -24 -29 -6 -227 -76 -311 -111 -179 -73 -380
-170 -525 -251 -73 -41 -282 -173 -290 -183 -3 -3 -25 -19 -50 -35 -50 -32
-287 -218 -336 -263 -65 -60 -50 -66 -186 73 -184 189 -315 329 -399 429 -19
22 -37 42 -41 43 -18 8 -3 23 75 75 155 102 286 180 403 238 38 18 71 36 74
40 19 20 460 204 460 191 0 -4 4 -1 8 6 5 7 20 15 35 17 14 3 46 14 71 25 26
11 50 20 54 20 4 0 25 6 47 12 22 6 43 12 48 14 4 1 8 2 10 4 1 1 9 3 17 5 8
1 47 12 85 23 71 20 175 46 230 57 17 3 41 8 55 12 14 3 36 7 50 8 14 2 25 4
25 5 0 2 33 9 85 16 25 3 55 10 68 15 17 6 21 6 16 -3 -4 -7 -3 -8 5 -4 6 4
28 10 49 12 20 2 51 6 67 9 42 6 115 13 215 21 47 3 86 7 87 8 1 0 51 2 111 3
88 2 111 0 116 -12z m371 1 c104 -9 176 -16 210 -22 17 -2 50 -6 75 -9 25 -2
56 -6 70 -9 14 -3 41 -7 60 -10 19 -3 44 -7 55 -10 31 -6 104 -18 110 -17 2 0
19 -5 37 -10 18 -6 47 -13 63 -16 17 -3 35 -9 41 -14 6 -5 13 -6 17 -3 7 7
192 -44 350 -97 234 -78 411 -152 632 -263 110 -55 286 -155 273 -156 -7 0
-123 47 -150 61 -10 5 -29 9 -42 9 -13 0 -26 4 -28 8 -3 9 -272 89 -363 108
-11 2 -31 7 -45 10 -14 2 -36 7 -50 10 -14 3 -32 7 -40 9 -8 2 -31 7 -50 10
-19 3 -46 8 -60 10 -57 12 -77 15 -117 20 -24 3 -62 7 -85 10 -24 3 -52 7 -64
9 -133 26 -788 27 -919 2 -11 -2 -47 -7 -80 -11 -33 -3 -63 -7 -68 -8 -5 -1
-11 12 -12 28 -20 185 -23 214 -30 283 -3 35 -3 67 -1 71 5 8 91 7 211 -3z
m768 -730 c15 -2 60 -7 100 -11 40 -4 81 -9 92 -11 10 -2 35 -6 55 -9 20 -3
45 -7 55 -9 11 -2 40 -7 65 -11 25 -4 70 -13 100 -20 30 -8 66 -16 80 -19 52
-10 70 -15 78 -20 5 -3 19 -7 33 -9 114 -21 417 -130 598 -215 42 -19 78 -35
81 -34 3 0 16 -7 28 -17 l23 -17 -26 -58 c-24 -54 -28 -58 -53 -53 -46 9 -86
18 -127 29 -22 5 -51 12 -65 14 -14 2 -34 5 -45 7 -60 13 -209 34 -320 45
-145 14 -591 7 -695 -12 -14 -3 -50 -7 -80 -10 -45 -5 -294 -54 -362 -71 -10
-3 -26 -7 -35 -9 -10 -3 -33 -9 -50 -15 -18 -5 -33 -7 -33 -4 0 3 -6 1 -12 -4
-7 -6 -45 -20 -85 -32 -40 -12 -79 -24 -87 -27 -12 -4 -36 45 -51 106 -1 3 -5
12 -8 20 -16 38 -99 321 -111 380 -3 14 -8 35 -12 48 -3 12 -2 22 2 23 5 0 16
2 24 3 30 6 117 16 200 22 47 4 86 8 88 9 5 5 524 -4 555 -9z m-1024 -88 c9
-29 49 -184 55 -213 1 -5 4 -14 7 -20 4 -5 10 -23 14 -40 5 -16 10 -36 12 -42
1 -7 4 -19 6 -25 1 -7 6 -19 11 -26 4 -7 5 -16 2 -19 -3 -3 -2 -11 3 -17 8
-11 61 -158 61 -171 0 -3 -26 -17 -57 -31 -293 -129 -592 -317 -838 -528 -63
-54 -255 -244 -344 -340 -19 -21 -37 -34 -40 -29 -3 4 -26 24 -51 43 -64 49
-68 53 -93 75 -12 11 -42 36 -67 56 -25 20 -56 47 -70 59 -14 12 -49 43 -79
68 -77 67 -82 72 -147 129 -33 28 -97 87 -143 130 l-83 79 47 39 c27 22 59 50
71 63 13 12 25 22 28 22 5 0 20 11 69 54 12 10 42 32 67 49 25 17 47 34 50 37
3 4 25 20 50 35 25 15 47 31 50 35 8 11 54 35 63 32 4 -1 7 3 7 8 0 6 12 16
28 23 15 7 47 25 70 40 41 27 311 171 322 172 3 1 28 11 55 24 80 36 245 102
310 122 33 11 67 22 75 26 18 7 28 10 60 17 14 3 36 10 50 16 24 9 68 21 155
40 22 5 51 12 65 15 14 4 39 9 55 12 17 2 32 7 34 9 2 2 14 4 27 4 17 0 25 -8
33 -32z m-2773 -136 c22 -26 53 -61 69 -78 17 -16 47 -50 69 -75 21 -24 118
-127 215 -228 97 -101 177 -187 179 -191 1 -4 -32 -44 -75 -88 -43 -44 -98
-104 -123 -132 -25 -29 -50 -58 -55 -64 -32 -35 -151 -188 -177 -228 -17 -27
-35 -48 -40 -48 -4 0 -8 -7 -8 -15 0 -8 -4 -15 -10 -15 -5 0 -10 -4 -10 -9 0
-6 -19 -38 -43 -73 -135 -196 -292 -499 -382 -733 -22 -55 -40 -101 -41 -103
0 -1 -64 20 -140 48 -76 28 -161 58 -189 67 -27 10 -53 21 -56 26 -3 5 -10 8
-15 8 -13 -1 -38 7 -139 46 -102 40 -295 116 -340 134 -16 7 -32 13 -35 13 -3
1 -26 10 -53 20 -41 16 -46 22 -41 40 12 38 78 171 89 178 5 4 7 8 3 8 -3 0
14 37 38 82 24 45 44 85 44 90 0 4 4 8 9 8 5 0 15 15 22 33 7 17 19 38 26 45
7 8 11 17 8 22 -3 5 -2 10 2 12 5 1 42 55 83 118 76 117 85 130 108 155 6 7
12 17 12 22 0 4 13 23 28 41 30 36 48 58 94 120 18 23 36 42 40 42 4 0 8 6 8
14 0 8 3 16 8 18 4 2 32 32 62 67 130 152 306 329 465 466 38 33 79 68 90 78
11 10 46 37 78 59 31 23 57 45 57 49 0 18 30 -4 66 -49z m5444 -312 c6 0 10
-4 10 -9 0 -5 14 -14 30 -21 17 -7 30 -16 30 -21 0 -5 6 -9 13 -9 7 0 23 -9
35 -20 12 -11 24 -20 28 -20 7 0 101 -67 122 -87 7 -7 18 -13 24 -13 6 0 9 -2
6 -5 -3 -3 -45 13 -94 36 -81 38 -171 74 -249 101 -16 5 -37 12 -45 16 -8 3
-17 6 -20 7 -40 11 -50 18 -41 29 6 7 8 16 4 19 -3 4 -1 7 5 7 7 0 12 6 12 13
0 33 22 35 72 6 27 -16 53 -29 58 -29z m-1054 -256 c109 -3 139 -6 244 -19 25
-4 59 -8 75 -10 51 -6 198 -34 246 -48 l46 -12 -17 -75 c-20 -82 -27 -121 -37
-193 -3 -26 -10 -50 -15 -53 -5 -3 -30 -7 -56 -9 -162 -14 -190 -17 -287 -35
-27 -5 -61 -12 -75 -14 -43 -8 -234 -56 -250 -63 -8 -3 -19 -7 -25 -8 -12 -4
-168 -60 -209 -77 -56 -23 -310 -154 -360 -186 -28 -18 -53 -32 -57 -32 -6 0
-37 49 -142 225 -10 17 -20 38 -23 48 -4 9 -10 17 -15 17 -5 0 -9 4 -9 9 0 5
-38 81 -84 170 -46 88 -81 161 -79 161 3 0 1 6 -5 13 -12 14 2 47 14 35 4 -4
16 -2 28 4 11 7 26 13 31 14 6 2 53 15 105 29 52 15 102 29 110 30 120 27 220
47 258 51 26 3 63 7 82 10 72 11 108 14 233 18 71 3 131 7 134 10 3 3 10 3 15
0 5 -3 61 -7 124 -10z m818 -149 c16 -9 31 -13 34 -11 2 3 14 0 26 -6 11 -7
23 -13 26 -13 37 -3 320 -135 443 -205 43 -25 87 -49 98 -55 10 -5 19 -13 19
-17 0 -5 5 -8 11 -8 12 0 111 -66 175 -117 23 -18 46 -33 53 -33 6 0 11 -4 11
-10 0 -13 -1 -13 -57 12 -26 11 -52 22 -58 24 -5 1 -44 14 -85 29 -64 23 -220
67 -285 81 -52 12 -122 25 -145 29 -141 20 -198 26 -275 29 l-90 4 -1 33 c0
19 3 50 7 69 9 41 16 74 24 115 14 72 19 76 69 50z m-2100 -104 c-4 -5 123
-258 148 -293 11 -16 16 -28 13 -28 -3 0 3 -13 14 -29 12 -16 21 -31 21 -34 0
-3 23 -42 50 -87 28 -45 50 -84 50 -86 0 -3 18 -31 39 -63 l39 -58 -51 -40
c-133 -104 -377 -346 -377 -373 0 -6 -3 -10 -8 -10 -8 0 -94 -112 -138 -180
-16 -25 -36 -53 -44 -62 -16 -20 -40 -24 -40 -8 0 5 -4 9 -8 7 -8 -2 -66 33
-241 147 -52 33 -102 65 -112 71 -44 24 -255 171 -262 183 -4 6 -12 12 -17 12
-6 0 -18 7 -27 15 -10 8 -55 41 -100 73 l-81 59 34 38 c130 146 291 294 438
403 39 29 78 59 87 66 9 8 38 27 64 42 26 16 59 37 73 46 15 10 34 21 42 25 8
4 21 13 28 20 8 7 18 11 23 8 5 -4 9 -3 9 2 0 4 10 13 23 19 172 87 234 117
245 117 6 0 12 4 12 8 0 12 34 15 46 4 7 -5 10 -12 8 -14z m-2207 -96 c43 -38
92 -83 109 -100 16 -16 57 -52 90 -80 32 -27 66 -56 74 -65 8 -8 40 -36 70
-60 30 -25 61 -52 70 -60 9 -8 35 -31 59 -50 23 -19 53 -43 64 -53 12 -11 39
-33 60 -50 85 -70 86 -49 -8 -182 -46 -66 -103 -154 -126 -195 -24 -41 -46
-77 -49 -80 -4 -3 -11 -16 -15 -30 -4 -14 -11 -27 -15 -30 -6 -5 -100 -196
-100 -205 0 -2 -13 -32 -29 -67 -36 -79 -86 -218 -102 -281 -12 -48 -13 -49
-43 -42 -17 3 -42 9 -55 11 -13 3 -32 9 -41 14 -9 5 -28 11 -42 14 -13 2 -71
18 -129 36 -57 17 -131 40 -164 50 -33 10 -118 37 -190 60 -71 23 -136 42
-142 42 -7 1 -13 5 -13 9 0 4 -6 6 -12 5 -7 0 -76 21 -154 47 -135 46 -141 49
-136 72 2 14 8 25 11 25 4 0 8 6 8 13 1 34 208 474 234 497 3 3 21 32 39 65
19 33 37 62 42 63 4 2 8 8 8 14 0 6 11 26 25 44 14 18 25 35 25 39 0 5 44 66
114 160 122 162 360 429 377 423 4 -2 43 -34 86 -73z m4029 -457 c3 -4 7 -20
9 -35 13 -141 47 -302 96 -445 16 -48 29 -92 29 -97 0 -6 -17 -18 -37 -28 -51
-23 -183 -104 -237 -145 -24 -18 -57 -42 -72 -53 -40 -29 -244 -234 -244 -246
0 -19 -56 29 -186 158 -122 121 -230 238 -263 286 -9 12 -25 32 -36 44 -31 34
-43 49 -68 87 -13 19 -38 52 -55 74 -18 22 -32 44 -32 49 0 19 249 154 360
195 25 10 59 23 75 29 17 7 32 13 35 14 3 0 44 13 92 28 48 16 97 30 108 33
11 2 30 6 43 9 12 3 38 7 57 10 19 2 35 4 35 5 0 5 98 20 165 26 36 4 66 7 68
9 5 4 51 -1 58 -7z m359 -2 c99 -12 151 -19 157 -22 4 -3 26 -7 50 -10 24 -4
88 -20 143 -36 55 -15 107 -30 115 -33 8 -2 16 -4 18 -5 1 -2 5 -3 10 -4 4 -1
13 -5 20 -9 6 -5 16 -6 21 -3 5 4 11 1 13 -4 2 -6 10 -12 18 -14 53 -11 295
-131 374 -185 25 -17 47 -31 50 -31 10 0 201 -151 205 -162 2 -6 -4 -6 -18 1
-11 7 -21 9 -21 5 0 -3 -6 -2 -12 4 -11 8 -69 28 -113 38 -5 1 -37 9 -70 17
-61 16 -94 21 -200 34 -68 8 -361 8 -415 0 -19 -3 -57 -8 -85 -12 -58 -8 -271
-62 -297 -76 -36 -19 -37 -18 -82 126 -13 44 -27 94 -30 110 -2 17 -5 30 -6
30 -5 0 -26 137 -35 222 l-3 33 82 -6 c44 -3 95 -7 111 -8z m-3378 -379 c15
-13 69 -52 118 -87 50 -35 92 -67 95 -70 3 -3 13 -9 22 -15 10 -5 68 -44 130
-86 195 -132 299 -199 309 -199 5 0 9 -4 9 -10 0 -5 4 -10 9 -10 14 0 161 -92
161 -101 0 -5 -9 -24 -19 -43 -11 -19 -17 -37 -14 -40 4 -3 1 -6 -5 -6 -7 0
-12 -5 -12 -10 0 -6 -9 -29 -19 -53 -11 -23 -28 -62 -38 -87 -20 -47 -84 -245
-103 -318 -9 -36 -14 -42 -30 -37 -11 4 -32 8 -47 11 -16 3 -75 16 -133 29
-58 13 -116 26 -130 29 -23 4 -154 35 -305 72 -33 8 -69 16 -80 19 -11 2 -58
14 -105 26 -47 11 -92 22 -100 24 -8 2 -42 11 -75 20 -33 9 -79 21 -102 27
-24 5 -43 12 -43 14 0 3 10 35 22 72 12 37 21 70 20 75 -1 4 2 7 6 7 5 0 9 6
10 13 1 19 29 92 64 166 17 36 39 84 49 106 21 46 86 166 113 210 57 91 182
275 188 275 3 0 19 -10 35 -23z m1808 -91 c11 -13 27 -34 35 -46 8 -13 29 -40
45 -61 17 -21 48 -61 69 -89 22 -27 43 -50 48 -50 4 0 8 -5 8 -10 0 -6 12 -24
28 -41 118 -135 237 -257 350 -357 34 -31 62 -60 62 -64 0 -4 -11 -23 -24 -43
-13 -19 -47 -80 -76 -136 -58 -112 -44 -107 -155 -63 -99 38 -120 46 -121 42
0 -2 -8 3 -16 10 -9 7 -24 14 -34 16 -11 2 -48 17 -84 33 -36 17 -103 47 -150
68 -47 21 -91 42 -97 48 -7 5 -13 7 -13 4 0 -5 -323 156 -377 189 -18 10 -33
21 -33 24 0 8 115 167 162 223 44 53 215 227 259 262 51 42 82 65 88 65 3 0
15 -11 26 -24z m-5085 -56 c140 -56 277 -108 695 -266 50 -18 104 -39 120 -45
34 -14 41 -16 56 -18 6 0 8 -10 4 -20 -3 -11 -7 -28 -9 -38 -2 -10 -11 -41
-21 -69 -9 -28 -18 -57 -19 -65 -5 -27 -18 -74 -23 -89 -3 -8 -7 -22 -8 -30
-1 -8 -9 -51 -19 -95 -24 -119 -33 -165 -42 -235 -6 -49 -13 -103 -19 -147 -8
-57 -16 -177 -20 -277 -1 -48 -7 -91 -13 -95 -8 -5 -1073 -7 -1129 -2 -8 1
-11 26 -8 89 4 93 14 233 21 295 2 20 6 56 9 78 7 65 15 121 21 152 3 16 7 38
9 50 2 12 6 36 9 52 2 17 7 48 11 70 3 22 9 49 12 60 4 11 8 25 9 30 14 80 80
314 122 437 17 48 27 89 24 92 -3 3 1 6 8 6 7 0 11 3 8 6 -4 3 1 22 9 42 8 20
19 47 24 60 11 28 22 26 159 -28z m7408 -274 c6 -3 28 -8 49 -11 54 -6 167
-34 213 -52 8 -3 20 -7 25 -9 6 -1 23 -7 39 -13 29 -12 30 -17 12 -86 -2 -5
-6 -30 -10 -55 -4 -25 -9 -54 -11 -65 -2 -11 -4 -30 -4 -41 -1 -21 -7 -24 -82
-40 -92 -20 -304 -143 -392 -228 -58 -56 -47 -61 -187 90 -124 134 -328 431
-309 448 6 5 203 54 219 54 20 0 104 13 108 17 6 6 321 -3 330 -9z m-738 -263
c0 -7 4 -13 8 -13 5 0 13 -10 19 -22 13 -28 179 -249 223 -298 18 -19 64 -67
102 -107 44 -44 68 -76 64 -85 -40 -84 -75 -133 -92 -130 -68 11 -404 161
-574 256 -36 21 -73 40 -82 43 -10 3 -18 9 -18 14 0 5 -7 9 -15 9 -8 0 -15 5
-15 10 0 6 -4 10 -9 10 -17 0 -141 82 -141 93 0 6 42 52 94 102 93 90 215 180
311 228 l49 25 38 -61 c20 -34 37 -68 38 -74z m1274 72 c8 -8 18 -15 23 -15
11 0 101 -67 144 -108 l34 -32 -40 7 c-22 3 -78 7 -125 7 -48 1 -88 6 -92 12
-4 5 -2 30 4 55 5 24 11 53 13 64 1 11 3 21 4 23 3 7 21 0 35 -13z m-6449 -78
c116 -38 217 -71 225 -74 8 -4 20 -7 25 -9 6 -1 48 -14 95 -29 85 -27 172 -53
393 -118 65 -19 120 -37 123 -40 3 -3 0 -25 -6 -48 -13 -47 -17 -67 -25 -114
-3 -16 -8 -41 -10 -55 -3 -14 -7 -43 -10 -65 -3 -22 -7 -50 -9 -63 -8 -36 -19
-191 -20 -264 -1 -38 -3 -68 -6 -69 -3 -1 -274 -2 -602 -3 l-598 -1 5 90 c7
155 15 241 30 345 2 14 7 45 10 70 4 25 10 63 15 85 5 22 12 56 15 75 3 19 13
64 22 100 9 36 17 72 18 80 0 9 4 20 8 27 4 6 8 23 9 37 1 14 5 26 8 26 3 0 6
10 7 22 1 12 7 34 13 49 9 21 16 26 33 20 12 -3 117 -37 232 -74z m3024 -99
c25 -13 49 -27 53 -33 4 -5 8 -6 8 -2 0 5 12 0 28 -10 34 -24 270 -138 462
-223 105 -47 279 -120 295 -124 6 -1 27 -10 49 -19 21 -9 44 -17 51 -17 6 0
15 -3 19 -7 4 -5 13 -8 19 -8 15 0 17 -41 4 -75 -5 -14 -11 -36 -12 -50 -2
-14 -4 -26 -5 -27 -3 -4 -7 -19 -9 -34 -1 -6 -22 -8 -60 -4 -33 3 -81 8 -108
11 -26 2 -64 6 -83 9 -19 3 -55 7 -80 9 -25 3 -54 7 -65 9 -11 3 -47 8 -80 11
-86 10 -235 33 -405 62 -19 3 -46 8 -60 10 -26 4 -91 16 -100 19 -3 1 -38 7
-78 15 l-74 13 6 41 c6 46 70 231 111 321 15 33 33 75 41 93 8 17 17 32 21 32
3 0 27 -10 52 -22z m1561 -278 c5 -5 27 -18 75 -44 11 -6 22 -14 25 -17 3 -4
46 -29 95 -57 50 -28 96 -56 102 -62 7 -6 16 -11 20 -12 11 -2 225 -107 232
-114 6 -5 -52 3 -82 12 -11 3 -29 7 -40 9 -29 5 -76 14 -107 21 -14 3 -32 7
-40 9 -8 2 -53 13 -100 25 -47 12 -92 23 -100 25 -8 2 -49 13 -90 25 -41 12
-87 24 -102 27 l-27 5 31 62 c17 33 39 74 50 89 20 28 28 27 58 -3z m-2800
-131 c25 -6 54 -12 65 -14 11 -2 20 -4 20 -5 0 -2 21 -7 60 -15 17 -3 38 -8
47 -11 10 -3 30 -7 45 -10 16 -3 75 -16 133 -29 58 -13 119 -27 137 -30 18 -3
43 -9 56 -14 14 -6 28 -7 31 -3 4 3 4 -14 1 -38 -4 -25 -8 -67 -10 -95 -2 -27
-5 -50 -6 -50 -1 0 -2 -25 -3 -55 -1 -30 -5 -60 -8 -65 -4 -6 -217 -9 -595 -9
-323 1 -591 2 -594 3 -5 1 -5 146 1 146 1 0 3 20 5 45 4 64 15 152 20 181 3
13 8 40 11 59 4 19 7 40 9 45 1 6 5 28 10 50 4 22 9 43 11 46 2 3 117 -23 256
-58 139 -35 273 -69 298 -74z m4851 45 c71 -21 154 -61 204 -98 50 -37 135
-121 135 -133 0 -5 9 -19 19 -30 40 -42 78 -153 65 -188 -5 -12 -14 -12 -84 0
-82 15 -320 132 -320 157 0 5 -4 8 -10 8 -14 0 -107 99 -137 146 -30 45 -73
135 -73 150 0 14 10 15 73 10 41 -3 98 -13 128 -22z m-360 -19 c1 -8 2 -19 3
-23 5 -31 98 -193 142 -247 30 -36 52 -65 49 -65 -16 0 -250 94 -310 125 -140
71 -153 79 -141 90 44 41 196 133 196 119 0 -3 8 0 18 5 25 15 42 13 43 -4z
m-1801 -215 c3 -4 19 -10 35 -13 34 -6 51 -10 115 -27 25 -7 52 -13 60 -15 8
-2 27 -8 41 -13 15 -6 30 -8 33 -5 3 3 12 0 21 -7 8 -7 15 -10 15 -7 0 4 19 0
90 -18 8 -2 27 -4 43 -4 15 -1 27 -6 27 -12 0 -5 -3 -8 -7 -6 -5 3 -60 8 -123
12 -122 7 -158 10 -255 19 -33 4 -89 8 -125 11 -36 2 -68 4 -71 5 -8 0 -5 33
5 48 4 7 5 16 2 19 -3 3 -1 12 5 20 12 14 78 8 89 -7z m-1620 -40 c25 -6 56
-12 70 -14 14 -3 25 -5 25 -6 0 -1 14 -4 30 -5 17 -2 44 -6 60 -9 17 -3 39 -8
50 -10 11 -2 43 -7 70 -11 52 -8 69 -10 120 -19 28 -5 206 -30 285 -40 19 -3
58 -8 85 -12 78 -10 116 -14 166 -18 25 -2 50 -5 55 -7 5 -3 26 -4 46 -4 21 0
38 -2 39 -5 0 -3 2 -15 5 -27 2 -13 1 -23 -4 -24 -4 -1 -280 -2 -613 -3 l-607
-1 4 74 c2 40 7 85 10 100 3 14 6 34 6 43 -1 18 9 17 98 -2z m3148 -55 c6 -6
-48 4 -86 16 -26 9 -31 14 -22 24 9 11 20 9 58 -11 25 -13 48 -26 50 -29z
m-1588 -154 c0 -11 -63 -6 -67 5 -2 6 12 8 32 6 19 -2 35 -7 35 -11z m40 1 c0
-5 -7 -9 -15 -9 -8 0 -12 4 -9 9 3 4 9 8 15 8 5 0 9 -4 9 -8z m-5259 -172 c0
-3 2 -36 4 -75 6 -120 15 -249 20 -275 2 -14 7 -47 10 -75 7 -52 21 -146 28
-180 3 -11 8 -40 12 -65 4 -25 9 -54 12 -65 3 -11 9 -38 13 -60 5 -22 14 -55
19 -72 5 -18 8 -33 5 -33 -3 0 0 -8 5 -19 6 -10 13 -33 16 -51 3 -18 10 -41
16 -51 5 -11 7 -19 3 -19 -3 0 -1 -7 6 -15 7 -8 10 -15 7 -15 -13 0 115 -346
183 -495 17 -38 30 -70 28 -70 -1 0 7 -15 20 -32 13 -18 21 -33 18 -33 -2 0
13 -32 35 -71 21 -40 39 -74 39 -76 0 -2 14 -25 32 -51 18 -26 32 -49 32 -52
-1 -6 12 -28 73 -121 24 -37 43 -71 43 -77 0 -6 3 -12 8 -14 4 -1 38 -46 76
-98 61 -84 162 -215 191 -246 6 -6 35 -40 65 -75 72 -83 291 -301 366 -364 32
-27 61 -52 64 -56 6 -7 105 -86 150 -119 18 -14 39 -30 45 -37 43 -42 507
-333 532 -333 3 0 17 -9 31 -19 15 -10 30 -20 34 -20 4 -1 54 -24 110 -50 190
-89 217 -100 453 -181 133 -45 301 -95 355 -104 14 -3 25 -5 25 -6 0 -1 9 -3
20 -5 11 -2 43 -9 70 -15 56 -12 100 -20 130 -25 11 -1 34 -5 50 -9 17 -3 48
-8 70 -10 22 -3 56 -8 75 -10 244 -36 800 -43 990 -12 14 3 45 7 70 10 25 3
68 9 95 12 28 4 60 8 73 8 12 1 22 3 22 6 0 3 8 6 18 7 24 2 97 12 97 13 0 1
7 3 15 5 8 2 26 6 40 9 14 3 36 7 50 11 14 3 35 7 46 9 86 16 412 117 509 157
17 7 32 13 35 14 3 1 18 7 33 13 16 7 33 12 38 12 5 0 22 8 37 17 l27 17 -22
-22 c-12 -12 -24 -22 -26 -22 -3 0 -56 -30 -118 -66 -132 -77 -266 -145 -411
-210 -94 -41 -269 -112 -293 -118 -5 -2 -17 -6 -25 -9 -55 -21 -168 -59 -186
-63 -11 -2 -49 -13 -84 -24 -35 -11 -77 -23 -94 -26 -16 -3 -32 -7 -36 -9 -4
-2 -49 -14 -101 -25 -120 -27 -128 -29 -164 -35 -16 -3 -52 -9 -80 -15 -27 -6
-70 -13 -95 -16 -25 -3 -56 -7 -70 -9 -196 -29 -373 -40 -650 -39 -249 1 -389
8 -530 28 -19 3 -57 8 -85 11 -27 3 -75 10 -105 16 -30 5 -68 12 -85 14 -16 3
-52 10 -80 15 -27 6 -59 12 -70 14 -11 2 -47 11 -81 20 -33 8 -69 17 -80 19
-10 2 -26 7 -34 10 -15 5 -62 18 -91 23 -34 7 -378 125 -405 139 -16 8 -33 15
-38 15 -29 0 -452 204 -556 269 -19 11 -46 27 -60 34 -14 6 -51 29 -83 50 -31
20 -61 37 -66 37 -5 0 -11 3 -13 8 -1 4 -39 32 -83 61 -44 30 -81 59 -83 63
-2 4 -8 8 -14 8 -6 0 -32 18 -58 40 -26 22 -52 40 -58 40 -6 0 -12 3 -14 8 -1
4 -25 25 -53 47 -27 22 -59 49 -71 60 -12 11 -44 38 -70 60 -123 103 -333 314
-449 450 -109 128 -175 210 -205 255 -8 12 -29 41 -46 64 -17 22 -50 70 -74
106 -24 36 -48 68 -54 72 -6 4 -8 8 -3 8 4 0 -9 22 -28 50 -19 27 -35 52 -35
55 0 2 -19 35 -41 72 -57 93 -178 335 -234 468 -25 61 -50 119 -55 130 -10 22
-51 135 -55 150 -1 6 -5 17 -8 25 -18 46 -49 148 -75 245 -44 162 -48 175 -56
220 -2 11 -6 31 -9 45 -4 14 -9 36 -11 50 -3 14 -7 36 -11 50 -3 14 -8 41 -10
60 -3 19 -8 46 -10 60 -3 14 -7 43 -10 65 -2 22 -6 54 -9 70 -19 141 -39 448
-31 465 4 7 1145 7 1146 0z m1580 -10 c1 -8 3 -44 5 -80 5 -108 29 -320 39
-360 3 -8 7 -32 11 -54 8 -51 26 -136 48 -221 2 -5 6 -23 11 -40 4 -16 16 -57
27 -90 11 -33 21 -67 23 -75 18 -81 175 -444 198 -461 5 -3 9 -10 8 -15 -1
-31 266 -452 322 -509 7 -6 26 -29 42 -50 17 -21 44 -54 60 -74 45 -54 294
-300 349 -346 26 -22 53 -45 60 -50 6 -6 31 -26 56 -45 25 -19 50 -39 57 -45
6 -5 27 -20 45 -33 18 -13 61 -43 95 -67 35 -25 65 -45 69 -45 3 0 24 -13 47
-29 90 -61 267 -152 434 -224 115 -48 219 -90 233 -92 3 0 30 -9 60 -20 30
-10 60 -20 65 -21 9 -1 79 -21 110 -30 6 -2 42 -11 80 -19 39 -9 79 -19 90
-21 11 -3 34 -7 50 -10 17 -3 53 -9 80 -14 175 -34 322 -45 580 -45 197 1 331
7 405 20 14 2 45 6 70 9 25 3 56 8 70 11 14 3 41 8 60 11 30 4 144 28 190 39
175 44 161 41 183 48 9 4 25 10 35 14 9 3 25 8 35 10 30 5 208 73 284 108 48
22 70 28 66 19 -3 -8 -8 -13 -10 -10 -5 5 -62 -34 -91 -62 -7 -6 -17 -12 -22
-12 -5 0 -38 -20 -74 -46 -36 -25 -69 -45 -73 -46 -4 0 -37 -17 -73 -38 -36
-20 -78 -44 -95 -53 -62 -32 -140 -70 -145 -72 -3 0 -27 -11 -55 -24 -27 -12
-72 -31 -100 -42 -27 -11 -59 -24 -70 -28 -60 -27 -248 -91 -275 -95 -9 -1
-20 -4 -25 -8 -6 -3 -23 -9 -40 -13 -16 -5 -34 -9 -40 -11 -5 -2 -19 -5 -30
-7 -11 -3 -47 -12 -80 -20 -33 -9 -72 -18 -88 -21 -15 -3 -35 -7 -45 -10 -9
-3 -35 -7 -56 -11 -21 -3 -48 -7 -60 -10 -12 -2 -37 -6 -56 -9 -90 -12 -137
-18 -157 -21 -167 -26 -672 -26 -863 -1 -14 2 -48 7 -75 10 -67 9 -85 12 -190
32 -49 9 -101 18 -115 19 -14 2 -26 4 -27 5 -4 3 -9 5 -48 14 -44 10 -91 23
-175 47 -41 12 -79 22 -85 24 -5 1 -23 7 -38 13 -16 7 -32 12 -37 12 -5 0 -21
5 -37 12 -15 6 -32 12 -38 14 -38 9 -265 107 -385 166 -251 122 -596 346 -746
483 -7 5 -36 30 -65 55 -73 62 -303 291 -370 370 -31 36 -90 110 -133 165 -42
55 -81 105 -86 112 -21 26 -165 251 -197 308 -38 68 -126 237 -128 245 0 3
-14 34 -31 70 -17 36 -43 97 -58 135 -16 39 -32 79 -36 90 -15 36 -51 140 -55
158 -2 9 -6 21 -9 25 -3 5 -7 19 -10 33 -3 13 -14 56 -26 94 -11 39 -23 82
-25 97 -3 16 -12 56 -20 90 -8 35 -16 75 -19 91 -3 15 -10 55 -16 88 -6 33
-13 75 -15 92 -2 18 -6 56 -10 85 -13 110 -26 312 -20 322 2 3 271 5 599 5
523 0 596 -2 597 -15z m1575 7 c4 -4 8 -31 10 -60 1 -28 5 -79 9 -112 4 -33 8
-71 9 -85 2 -14 6 -36 9 -50 4 -14 8 -38 11 -55 6 -47 35 -163 58 -240 12 -38
23 -72 23 -75 4 -13 17 -47 26 -62 5 -10 9 -25 9 -33 0 -8 4 -23 9 -33 5 -9
17 -35 26 -57 31 -72 126 -260 141 -276 8 -8 14 -19 14 -22 0 -10 73 -121 83
-125 4 -2 7 -8 7 -14 0 -11 86 -122 164 -213 88 -102 289 -295 307 -295 4 0 9
-4 11 -8 5 -12 125 -102 198 -149 36 -23 70 -45 75 -50 6 -4 28 -18 50 -30 22
-11 56 -30 76 -41 20 -11 45 -25 55 -31 72 -39 282 -127 297 -123 4 1 7 -3 7
-9 0 -5 5 -7 10 -4 6 4 16 3 23 -3 24 -18 282 -85 412 -106 130 -21 325 -37
470 -38 58 0 256 16 335 28 19 3 44 7 55 8 45 7 103 19 155 31 30 8 66 16 80
19 26 5 154 43 180 53 8 4 18 7 23 8 4 2 8 3 10 5 1 1 9 3 18 5 9 1 32 10 50
18 34 15 70 29 79 31 3 1 16 7 30 14 48 25 -42 -46 -150 -119 -58 -38 -114
-76 -125 -84 -10 -8 -25 -15 -32 -15 -7 0 -13 -4 -13 -9 0 -5 -11 -12 -25 -15
-14 -4 -25 -11 -25 -17 0 -6 -4 -8 -9 -4 -5 3 -12 1 -15 -4 -11 -18 -342 -170
-406 -186 -8 -3 -59 -20 -112 -39 -54 -18 -98 -33 -98 -31 0 2 -21 -4 -47 -12
-65 -19 -249 -58 -328 -69 -22 -3 -53 -7 -70 -10 -125 -19 -524 -26 -660 -11
-142 15 -161 17 -225 28 -212 37 -481 114 -645 184 -16 7 -55 23 -85 36 -30
13 -73 33 -95 44 -185 99 -220 119 -223 127 -2 4 -9 8 -16 8 -6 0 -21 7 -31
15 -11 8 -58 40 -105 72 -47 31 -89 60 -95 65 -5 4 -48 38 -94 74 -46 37 -98
81 -116 98 -18 17 -48 45 -66 62 -87 79 -232 241 -309 344 -14 18 -30 38 -36
44 -6 6 -13 16 -15 21 -2 6 -34 56 -72 111 -37 56 -67 107 -67 113 0 6 -3 11
-7 11 -5 0 -13 10 -19 23 -6 12 -41 81 -78 154 -36 73 -66 135 -66 138 0 7 -8
27 -40 100 -8 17 -14 32 -15 35 0 3 -13 41 -27 85 -14 44 -32 100 -39 125 -7
25 -14 50 -15 55 -14 50 -31 125 -27 125 2 0 1 6 -3 12 -5 7 -9 19 -10 28 -1
8 -5 31 -8 50 -3 19 -8 51 -11 70 -3 19 -7 51 -10 70 -11 71 -25 270 -20 280
5 8 1183 6 1191 -3z m1610 -52 c1 -33 5 -71 8 -85 3 -13 7 -39 8 -57 1 -18 6
-33 11 -33 4 0 6 -4 2 -9 -3 -6 -1 -29 5 -53 6 -24 13 -52 15 -62 25 -108 123
-338 188 -441 59 -95 72 -113 143 -200 202 -247 470 -434 774 -541 127 -44
276 -79 380 -89 19 -2 35 -4 35 -5 0 -1 41 -3 90 -6 50 -2 95 -5 100 -5 18 -2
202 12 226 16 13 3 41 7 64 10 22 3 78 15 125 26 47 12 90 22 97 23 7 1 16 5
19 9 4 4 12 7 17 7 25 0 -30 -41 -208 -155 -48 -31 -255 -135 -255 -129 0 4
-6 2 -12 -4 -12 -9 -195 -80 -228 -88 -8 -2 -40 -10 -70 -19 -64 -18 -116 -28
-147 -29 -13 -1 -23 -3 -23 -6 0 -3 -15 -7 -32 -9 -40 -4 -73 -9 -73 -11 0 -6
-160 -13 -300 -14 -197 0 -305 6 -305 17 0 5 -4 6 -10 2 -5 -3 -55 4 -112 16
-57 11 -110 22 -119 24 -9 2 -49 14 -90 26 -41 13 -76 23 -79 24 -5 2 -21 8
-75 28 -16 7 -32 12 -35 13 -44 10 -264 119 -335 166 -27 19 -53 34 -58 35
-12 3 -50 31 -160 117 -174 136 -341 316 -468 507 -46 69 -80 128 -76 132 1 1
-7 16 -19 32 -28 41 -107 223 -139 320 -44 136 -47 146 -50 168 -1 12 -6 35
-10 52 -5 16 -9 41 -11 55 -1 14 -3 25 -4 25 -7 0 -31 245 -25 255 2 3 277 5
611 5 l608 0 2 -60z m1475 50 c0 -5 2 -19 4 -30 1 -11 5 -36 8 -55 37 -239
192 -486 402 -635 54 -39 183 -113 203 -116 12 -2 36 -10 57 -19 47 -20 105
-34 205 -50 62 -9 261 -6 303 5 27 7 28 7 15 -14 -7 -11 -17 -21 -22 -21 -5 0
-16 -8 -25 -18 -9 -10 -31 -27 -48 -37 -18 -11 -33 -23 -33 -27 0 -4 -5 -8
-10 -8 -6 0 -29 -12 -53 -27 -111 -70 -332 -159 -419 -169 -10 -1 -19 -3 -20
-4 -3 -2 -32 -7 -83 -12 -17 -2 -35 -6 -40 -9 -13 -8 -333 -3 -365 5 -14 4
-41 9 -60 11 -30 5 -58 11 -92 20 -5 2 -9 3 -10 5 -2 1 -12 3 -23 5 -57 8
-295 109 -303 127 -2 4 -8 8 -14 8 -42 0 -303 218 -389 326 -42 53 -69 93 -69
104 0 5 -4 10 -9 10 -5 0 -27 36 -49 80 -22 44 -44 85 -49 92 -24 38 -79 219
-89 292 -3 21 -9 57 -13 81 -6 33 -7 90 -2 90 635 2 1091 -2 1092 -10z m1625
-45 c0 -30 -4 -68 -9 -85 -5 -16 -9 -36 -10 -42 0 -7 -4 -13 -7 -13 -4 0 -13
-13 -20 -30 -7 -16 -21 -40 -31 -52 -10 -13 -31 -38 -46 -56 -32 -38 -143
-128 -143 -115 0 4 -4 3 -8 -3 -10 -14 -85 -48 -152 -69 -30 -9 -98 -18 -150
-20 -84 -3 -115 -1 -206 19 -76 16 -232 107 -290 168 -64 69 -115 149 -139
222 -17 49 -34 124 -30 128 2 2 282 3 622 3 l618 0 1 -55z"/>
</g>
</svg>
